<svg width="18" height="18" viewBox="0 0 18 18" fill="none" xmlns="http://www.w3.org/2000/svg">
<path fill-rule="evenodd" clip-rule="evenodd" d="M17.7999 9.00019C17.7999 11.3341 16.8728 13.5724 15.2225 15.2227C13.5722 16.8731 11.3339 17.8002 8.99995 17.8002C6.66605 17.8002 4.42773 16.8731 2.77741 15.2227C1.12709 13.5724 0.199951 11.3341 0.199951 9.00019C0.199951 6.66629 1.12709 4.42798 2.77741 2.77766C4.42773 1.12734 6.66605 0.200195 8.99995 0.200195C11.3339 0.200195 13.5722 1.12734 15.2225 2.77766C16.8728 4.42798 17.7999 6.66629 17.7999 9.00019ZM11.2 5.70019C11.2 6.28367 10.9682 6.84325 10.5556 7.25583C10.143 7.66841 9.58343 7.90019 8.99995 7.90019C8.41647 7.90019 7.8569 7.66841 7.44432 7.25583C7.03174 6.84325 6.79995 6.28367 6.79995 5.70019C6.79995 5.11672 7.03174 4.55714 7.44432 4.14456C7.8569 3.73198 8.41647 3.5002 8.99995 3.5002C9.58343 3.5002 10.143 3.73198 10.5556 4.14456C10.9682 4.55714 11.2 5.11672 11.2 5.70019ZM8.99995 10.1002C7.94681 10.1 6.91575 10.4021 6.02931 10.9707C5.14286 11.5393 4.4383 12.3505 3.99935 13.3078C4.6183 14.0279 5.38565 14.6055 6.24879 15.0012C7.11193 15.3969 8.05044 15.6012 8.99995 15.6002C9.94946 15.6012 10.888 15.3969 11.7511 15.0012C12.6143 14.6055 13.3816 14.0279 14.0005 13.3078C13.5616 12.3505 12.857 11.5393 11.9706 10.9707C11.0841 10.4021 10.0531 10.1 8.99995 10.1002Z" fill="#56BA28"/>
</svg>
