<svg width="43" height="35" viewBox="0 0 43 35" fill="none" xmlns="http://www.w3.org/2000/svg">
<g clip-path="url(#clip0_333_7728)">
<path d="M8.21032 0C6.1611 0 4.40079 1.44453 3.99766 3.45344L0.557661 20.6534C0.0268797 23.3141 2.05594 25.8 4.77032 25.8H19.35V30.1H15.05C13.8608 30.1 12.9 31.0608 12.9 32.25C12.9 33.4392 13.8608 34.4 15.05 34.4H27.95C29.1392 34.4 30.1 33.4392 30.1 32.25C30.1 31.0608 29.1392 30.1 27.95 30.1H23.65V25.8H38.2297C40.9441 25.8 42.9798 23.3208 42.4491 20.6534L39.0091 3.45344C38.5992 1.44453 36.8389 0 34.7897 0H8.21032ZM17.5292 4.3H25.4708L26.1695 11.2875H16.8305L17.5292 4.3ZM13.592 11.2875H6.81282L8.21032 4.3H14.2841L13.592 11.2875ZM6.16782 14.5125H13.2695L12.5708 21.5H4.77032L6.16782 14.5125ZM16.508 14.5125H26.492L27.1908 21.5H15.8092L16.508 14.5125ZM29.7305 14.5125H36.8322L38.2297 21.5H30.4359L29.7305 14.5125ZM36.1805 11.2875H29.408L28.7092 4.3H34.783L36.8927 3.87672L34.7897 4.3L36.1872 11.2875H36.1805Z" fill="#56BA28"/>
</g>
<defs>
<clipPath id="clip0_333_7728">
<rect width="43" height="34.4" fill="white"/>
</clipPath>
</defs>
</svg>
